<svg width="73" height="73" viewBox="0 0 73 73" fill="none" xmlns="http://www.w3.org/2000/svg">
<g clip-path="url(#clip0_207_10)">
<rect width="73" height="73" rx="8" fill="black"/>
<path d="M26.9321 20.0732C26.1118 20.0732 25.5332 19.5532 25.5332 18.8208C25.5332 18.5278 25.6138 18.1689 25.8408 17.4951L27.5986 12.1265C28.1187 10.5444 28.8657 9.9292 30.2573 9.9292C31.6489 9.9292 32.3813 10.5371 32.9014 12.1265L34.6519 17.4951C34.8276 18.0444 34.9082 18.4253 34.9082 18.7402C34.9082 19.5459 34.3296 20.0732 33.4507 20.0732C32.6377 20.0732 32.1616 19.6191 31.8687 18.5645L31.7441 18.1104H28.6021L28.4775 18.5645C28.1772 19.6484 27.7451 20.0732 26.9321 20.0732ZM29.188 15.9497H31.1729L30.272 12.5439H30.1108L29.188 15.9497ZM44.7666 16.5942C44.7666 18.8208 43.0601 20.2197 40.3428 20.2197C37.6255 20.2197 35.9189 18.8208 35.9189 16.5942V11.5332C35.9189 10.5298 36.4902 9.9292 37.457 9.9292C38.4165 9.9292 38.9951 10.5298 38.9951 11.5332V16.1182C38.9951 17.1143 39.4712 17.6562 40.3428 17.6562C41.1997 17.6562 41.6904 17.0996 41.6904 16.1182V11.5332C41.6904 10.5298 42.2617 9.9292 43.2285 9.9292C44.188 9.9292 44.7666 10.5298 44.7666 11.5332V16.5942ZM49.6299 20.0732C48.6704 20.0732 48.0918 19.4727 48.0918 18.4766V12.4634H46.5171C45.8652 12.4634 45.3525 11.9214 45.3525 11.2329C45.3525 10.5444 45.8652 10.0024 46.5171 10.0024H52.7646C53.4165 10.0024 53.9072 10.5371 53.9072 11.2329C53.9072 11.9287 53.4165 12.4634 52.7646 12.4634H51.168V18.4766C51.168 19.4653 50.582 20.0732 49.6299 20.0732ZM54.1929 15.5615V14.5215C54.1929 11.5845 55.8848 9.83398 58.8438 9.83398C61.7954 9.83398 63.4873 11.5918 63.4873 14.5215V15.5615C63.4873 18.4766 61.7954 20.2197 58.8438 20.2197C55.8921 20.2197 54.1929 18.4692 54.1929 15.5615ZM57.269 14.4995V15.5542C57.269 16.9604 57.8403 17.7661 58.8438 17.7661C59.8472 17.7661 60.4111 16.9604 60.4111 15.5542V14.4995C60.4111 13.0933 59.8398 12.2876 58.8438 12.2876C57.8403 12.2876 57.269 13.0933 57.269 14.4995ZM14.7812 33.5688V32.4043C14.7812 29.6284 16.561 27.834 19.3882 27.834C20.4868 27.834 21.5122 28.1123 22.2739 28.5664C23.0283 29.0132 23.5117 29.6284 23.5117 30.2949C23.5117 30.998 23.0063 31.4961 22.2886 31.4961C21.9956 31.4961 21.7466 31.4155 21.5269 31.291C20.9336 30.9761 20.4941 30.3901 19.6299 30.3901C18.4287 30.3901 17.8574 31.1079 17.8574 32.5728V33.5542C17.8574 35.0044 18.4287 35.7588 19.542 35.7588C20.355 35.7588 20.9116 35.29 20.9116 34.6089V34.4917H20.6406C19.8716 34.4917 19.4614 34.1255 19.4614 33.4517C19.4614 32.7852 19.8643 32.4409 20.6406 32.4409H22.1421C23.292 32.4409 23.79 32.9243 23.79 34.0156V34.3306C23.79 36.6963 22.0762 38.2197 19.4028 38.2197C16.4951 38.2197 14.7812 36.4766 14.7812 33.5688ZM28.1113 36.4253C28.1113 37.4873 27.5767 38.0732 26.5952 38.0732C25.5991 38.0732 25.0352 37.48 25.0352 36.4253V30.1191C25.0352 28.7056 25.6797 28.0024 26.9834 28.0024H29.7666C32.1616 28.0024 33.6191 29.1963 33.6191 31.1665C33.6191 32.397 33.0552 33.3564 32.0078 33.9131L33.0845 35.7075C33.2529 35.9858 33.3335 36.3081 33.3335 36.6157C33.3335 37.48 32.7109 38.0732 31.8027 38.0732C30.9824 38.0732 30.5576 37.751 30.0596 36.7842L28.9756 34.6895H28.1113V36.4253ZM28.1113 32.6387H29.3638C30.0962 32.6387 30.5942 32.2139 30.5942 31.4741C30.5942 30.7563 30.1108 30.3755 29.3345 30.3755H28.1113V32.6387ZM35.6772 38.0732C34.8569 38.0732 34.2783 37.5532 34.2783 36.8208C34.2783 36.5278 34.3589 36.1689 34.5859 35.4951L36.3438 30.1265C36.8638 28.5444 37.6108 27.9292 39.0024 27.9292C40.394 27.9292 41.1265 28.5371 41.6465 30.1265L43.397 35.4951C43.5728 36.0444 43.6533 36.4253 43.6533 36.7402C43.6533 37.5459 43.0747 38.0732 42.1958 38.0732C41.3828 38.0732 40.9067 37.6191 40.6138 36.5645L40.4893 36.1104H37.3472L37.2227 36.5645C36.9224 37.6484 36.4902 38.0732 35.6772 38.0732ZM37.9331 33.9497H39.918L39.0171 30.5439H38.856L37.9331 33.9497ZM46.3047 38.0732C45.3159 38.0732 44.7739 37.4873 44.7739 36.4253V29.9727C44.7739 28.5518 45.2793 28.0024 46.5757 28.0024H49.2271C51.5708 28.0024 53.021 29.3867 53.021 31.562C53.021 33.9277 51.5342 35.1509 49.0366 35.1509H47.8428V36.4253C47.8428 37.48 47.2935 38.0732 46.3047 38.0732ZM47.8501 32.9609H48.707C49.5493 32.9609 50.0107 32.6094 50.0107 31.6206C50.0107 30.7783 49.5566 30.2949 48.707 30.2949H47.8501V32.9609ZM61.6123 38.0732C60.6235 38.0732 60.0742 37.4873 60.0742 36.4253V34.1841H57.1812V36.4253C57.1812 37.48 56.6318 38.0732 55.6431 38.0732C54.6543 38.0732 54.105 37.4873 54.105 36.4253V29.5771C54.105 28.5151 54.6543 27.9292 55.6431 27.9292C56.6318 27.9292 57.1812 28.5225 57.1812 29.5771V31.811H60.0742V29.5771C60.0742 28.5151 60.6235 27.9292 61.6123 27.9292C62.6011 27.9292 63.1504 28.5225 63.1504 29.5771V36.4253C63.1504 37.48 62.6011 38.0732 61.6123 38.0732Z" fill="white"/>
<path d="M6 49.8413C6 47.1675 8.16751 45 10.8413 45H62.1587C64.8325 45 67 47.1675 67 49.8413V61.6746C67 64.6157 64.6157 67 61.6746 67H11.3254C8.38426 67 6 64.6157 6 61.6746V49.8413Z" fill="white"/>
</g>
<defs>
<clipPath id="clip0_207_10">
<rect width="73" height="73" fill="white"/>
</clipPath>
</defs>
</svg>
